<?xml version="1.0" standalone="no"?>
<!DOCTYPE svg PUBLIC "-//W3C//DTD SVG 20010904//EN"
 "http://www.w3.org/TR/2001/REC-SVG-20010904/DTD/svg10.dtd">
<svg version="1.0" xmlns="http://www.w3.org/2000/svg"
 width="500.000000pt" height="500.000000pt" viewBox="0 0 500.000000 500.000000"
 preserveAspectRatio="xMidYMid meet">
<metadata>
Created by potrace 1.14, written by Peter Selinger 2001-2017
</metadata>
<g transform="translate(0.000000,500.000000) scale(0.100000,-0.100000)"
fill="#000000" stroke="none">
<path d="M1710 4485 c-25 -8 -45 -14 -45 -15 0 -1 -10 -3 -23 -6 -13 -2 -36
-11 -52 -19 -17 -9 -32 -15 -35 -15 -11 2 -120 -42 -134 -53 -8 -7 -16 -11
-17 -10 -6 4 -79 -31 -86 -42 -4 -5 -8 -7 -8 -3 0 12 -154 -86 -224 -142 -25
-20 -143 -134 -384 -372 l-203 -200 17 -26 c60 -94 197 -235 319 -327 47 -36
157 -105 167 -105 13 0 81 50 96 71 11 16 16 18 23 8 4 -7 4 -20 0 -28 -5 -8
-5 -27 -1 -42 4 -15 4 -31 -1 -36 -17 -17 -33 -641 -17 -675 5 -9 4 -19 -2
-23 -5 -3 -6 -15 -2 -28 6 -17 8 -782 3 -782 -1 0 -4 -78 -6 -173 -2 -95 -7
-177 -10 -183 -10 -16 54 -68 98 -80 26 -7 77 -9 132 -5 220 15 335 18 389 12
57 -8 57 -8 56 -39 -1 -18 -1 -36 0 -42 1 -5 1 -14 0 -20 -6 -30 -5 -65 3 -65
4 0 5 -5 1 -11 -4 -6 -8 -80 -11 -163 -2 -83 -5 -173 -7 -201 -3 -44 -1 -53
22 -73 48 -42 125 -53 267 -37 155 17 326 13 470 -11 43 -8 355 -13 367 -7 8
4 183 13 323 17 49 1 112 -2 140 -7 27 -5 64 -11 80 -14 17 -3 111 -7 210 -9
132 -2 190 1 218 11 21 7 41 15 43 18 5 5 6 775 2 855 -2 23 1 42 6 42 5 0 5
5 0 13 -5 6 -9 49 -9 94 0 46 -2 83 -5 83 -6 0 -8 78 -14 559 l-5 394 47 -46
c26 -26 55 -47 63 -47 28 0 122 75 293 235 12 11 41 36 66 56 138 111 190 191
143 218 -10 6 -15 11 -12 11 3 0 -26 33 -65 73 -256 265 -316 329 -361 381
-72 84 -101 111 -180 166 -39 26 -130 111 -205 189 -74 78 -163 171 -197 206
-35 35 -63 66 -63 70 0 3 -18 24 -40 46 -22 22 -40 45 -40 50 0 5 -3 9 -8 9
-4 0 -18 10 -32 23 -50 45 -136 93 -245 137 -44 17 -96 38 -115 46 -58 23
-293 94 -325 98 -16 2 -37 0 -45 -4 -18 -9 -78 -20 -210 -37 -82 -10 -299 -7
-372 6 -34 6 -74 13 -88 15 -14 3 -34 7 -45 10 -57 13 -74 13 -115 1z"/>
</g>
</svg>
